<?xml version="1.0" standalone="no"?>
<!DOCTYPE svg PUBLIC "-//W3C//DTD SVG 20010904//EN"
 "http://www.w3.org/TR/2001/REC-SVG-20010904/DTD/svg10.dtd">
<svg version="1.0" xmlns="http://www.w3.org/2000/svg"
 width="1200.000000pt" height="282.000000pt" viewBox="0 0 1200.000000 282.000000"
 preserveAspectRatio="xMidYMid meet">

<g transform="translate(0.000000,282.000000) scale(0.100000,-0.100000)"
fill="#000000" stroke="none">
<path d="M4865 2813 c-22 -2 -87 -13 -145 -24 -398 -77 -670 -296 -751 -606
-35 -134 -30 -373 12 -500 37 -117 117 -229 212 -300 160 -119 388 -192 807
-258 203 -33 350 -83 414 -143 43 -41 66 -98 65 -167 0 -188 -135 -284 -404
-287 -177 -1 -278 28 -361 104 -54 49 -98 135 -115 221 l-12 57 -349 0 -349 0
7 -67 c38 -387 278 -666 669 -777 325 -92 778 -83 1070 21 284 102 460 281
537 549 20 69 23 102 23 254 0 153 -3 185 -23 255 -35 122 -76 190 -167 280
-157 156 -360 231 -835 310 -312 51 -419 85 -482 152 -36 38 -49 76 -49 143
-1 67 17 113 61 164 125 142 485 150 628 13 39 -37 80 -112 97 -177 l11 -45
346 -3 345 -2 -9 57 c-52 340 -243 583 -546 693 -80 29 -207 60 -307 74 -51 8
-347 14 -400 9z"/>
<path d="M8645 2808 c-640 -73 -1101 -527 -1190 -1169 -21 -155 -14 -443 14
-579 124 -591 522 -953 1151 -1045 19 -3 105 -7 190 -10 513 -14 924 146 1147
449 80 108 145 263 171 404 l9 52 -353 0 -352 0 -18 -53 c-68 -208 -254 -319
-534 -319 -320 0 -532 145 -631 429 -17 49 -49 219 -49 261 0 9 201 12 971 12
l971 0 -5 223 c-3 136 -11 258 -21 315 -97 558 -464 924 -1021 1018 -110 19
-341 25 -450 12z m385 -534 c214 -64 350 -247 376 -503 l7 -71 -602 0 -601 0
6 28 c36 157 58 217 114 307 78 122 198 209 345 247 86 22 269 18 355 -8z"/>
<path d="M3 2448 l2 -362 945 -313 c520 -172 952 -316 960 -319 8 -4 -414
-150 -939 -325 -525 -175 -958 -324 -963 -331 -4 -7 -7 -188 -7 -401 l1 -389
23 6 c19 5 1619 588 2485 905 l185 68 0 423 0 423 -1330 484 c-731 266 -1338
485 -1347 488 -15 5 -16 -21 -15 -357z"/>
<path d="M11829 2784 c-301 -41 -519 -192 -666 -461 l-43 -78 0 258 0 258
-372 -3 -373 -3 -3 -1347 -2 -1348 374 0 375 0 4 753 c3 673 5 759 20 816 58
214 195 352 419 420 83 25 265 51 358 51 l70 0 0 350 0 350 -37 -2 c-21 -1
-77 -7 -124 -14z"/>
<path d="M2927 2754 c-4 -4 -7 -612 -7 -1351 l0 -1343 370 0 370 0 -2 1347 -3
1348 -361 3 c-198 1 -363 -1 -367 -4z"/>
<path d="M6442 2752 c-10 -7 -12 -283 -10 -1348 l3 -1339 373 -3 372 -2 0
1349 0 1350 -362 0 c-200 1 -369 -3 -376 -7z"/>
<path d="M11629 637 c-140 -39 -221 -145 -222 -291 -1 -256 319 -381 503 -197
109 109 108 301 -1 410 -69 70 -188 103 -280 78z m150 -43 c170 -50 227 -283
102 -417 -47 -52 -98 -72 -181 -72 -87 0 -137 22 -187 78 -94 107 -79 288 31
372 70 53 145 66 235 39z"/>
<path d="M11600 360 l0 -150 25 0 c24 0 25 3 25 60 0 56 2 60 23 60 16 0 32
-16 60 -60 32 -52 41 -60 67 -60 l31 0 -41 60 -41 60 30 26 c24 20 31 34 31
62 -1 68 -39 92 -146 92 l-64 0 0 -150z m141 100 c12 -7 19 -21 19 -40 0 -35
-23 -50 -74 -50 l-36 0 0 50 0 50 36 0 c19 0 44 -5 55 -10z"/>
</g>
</svg>
